<?xml version="1.0" encoding="utf-8"?>
<!DOCTYPE svg PUBLIC "-//W3C//DTD SVG 1.1//EN" "http://www.w3.org/Graphics/SVG/1.1/DTD/svg11.dtd">
<svg version="1.1" xmlns="http://www.w3.org/2000/svg" width="485px" height="441px" viewBox="0 0 485 441" preserveAspectRatio="xMidYMid meet">
 <g fill="#90b81e">
  <path d="M337.65 392.65 c-1 -0.40 -0.75 -2.85 0.65 -6.80 3 -8.25 4.60 -13.80 4.90 -17.10 0.65 -6.50 0.75 -6.75 2.35 -6.75 1.75 0 1.75 0.25 0.70 8.50 -0.90 6.75 -2.60 12.65 -5.25 18.40 -1.90 4.05 -2.10 4.30 -3.35 3.75z"/>
  <path d="M289.85 372.50 c-3.55 -2.25 -11.15 -9.80 -12.35 -12.20 -1.20 -2.50 -1.25 -5.45 -0.25 -9.55 0.45 -1.65 1.10 -4.95 1.45 -7.30 0.40 -2.40 1.30 -5.40 2 -6.85 1 -1.95 1.30 -3.30 1.30 -5.70 0 -3.05 0 -3.10 2.50 -5.50 2.45 -2.35 2.65 -2.45 5.15 -2.30 2.30 0.15 2.70 0.30 3.75 1.90 1.25 1.95 3.75 3.30 7 3.80 1.70 0.25 2.55 0.80 4.30 2.75 2.45 2.75 3.30 4.85 4.80 12.15 1.25 6.25 1.25 10.25 0 14.05 -0.55 1.65 -1.50 4.65 -2.05 6.60 -2 7 -5.20 9.60 -11.75 9.65 -3.05 0 -3.80 -0.20 -5.85 -1.50z"/>
  <path d="M216 366.05 c-2.05 -0.45 -5.55 -1.65 -7.75 -2.65 -2.20 -0.95 -4.75 -2.05 -5.65 -2.40 -0.90 -0.35 -2.30 -1.25 -3.10 -2 -1.40 -1.30 -1.50 -1.65 -1.50 -5.15 0 -2.10 0.20 -3.95 0.50 -4.10 0.25 -0.15 0.70 -1.20 1.05 -2.35 0.30 -1.15 1.05 -2.75 1.65 -3.60 0.65 -0.85 1.50 -2.60 2 -3.90 0.90 -2.40 3.05 -4.85 8.85 -9.95 5.35 -4.65 5.30 -4.65 10.80 -4.25 2.65 0.20 5.45 0.65 6.20 0.95 1.50 0.65 4.80 4.40 5.55 6.35 1.55 3.85 3.15 8.25 4.40 12.30 1.45 4.60 3.10 8.30 5.30 11.80 1.55 2.45 1.70 7.10 0.25 7.85 -0.50 0.30 -4.50 0.65 -8.85 0.80 -4.40 0.15 -8.85 0.45 -9.95 0.75 -2.80 0.65 -5.40 0.55 -9.75 -0.45z"/>
  <path d="M340.50 337.25 c0 -1.40 0.20 -1.75 1 -1.75 0.65 0 1.20 0.50 1.50 1.30 0.75 1.95 0.65 2.20 -1 2.20 -1.40 0 -1.50 -0.15 -1.50 -1.75z"/>
 </g>
 <g fill="#7ab604">
  <path d="M232.10 423.40 c-3.80 -3.65 -7.25 -7.25 -7.70 -8 -0.85 -1.45 -5.10 -3.60 -8.05 -4.15 -2.10 -0.40 -3.50 1.05 -4.85 5.05 -1.35 3.90 -3.10 7.70 -3.55 7.70 -1 0 -9.35 -3.85 -12.05 -5.60 -5.20 -3.35 -13.15 -11.85 -16.75 -17.90 -4.85 -8.25 -6.90 -14.40 -8.90 -26.75 -1.40 -8.45 -1.60 -15.50 -0.50 -20.05 0.40 -1.70 1.15 -6.10 1.70 -9.75 0.55 -3.70 1.55 -9.30 2.25 -12.45 1.70 -7.90 3.15 -16.90 3.55 -22.10 0.30 -3.70 0.20 -4.65 -0.65 -6.55 -0.55 -1.25 -1.60 -2.65 -2.35 -3.15 -0.85 -0.55 -1.25 -1.20 -1.10 -1.70 0.40 -1.50 -0.55 -9.60 -1.65 -13.75 -1.60 -6.25 -1.90 -7.10 -5.35 -14.10 -2.60 -5.40 -3.25 -7.20 -3.60 -10.25 -0.30 -2.55 -0.90 -4.55 -2 -6.65 -1.10 -2.05 -1.90 -4.80 -2.60 -8.50 -1.05 -5.70 -1 -8.70 0.10 -10.10 0.70 -0.80 2.25 -0.75 10.85 0.15 4.90 0.55 11.20 -2.15 16.40 -6.90 2.15 -1.95 2.55 -2.15 5 -2.15 3.35 0 4.40 0.95 8.50 7.75 4.85 8.10 9.15 14.25 11.60 16.70 3.15 3.15 7.50 5.30 10.80 5.30 5.25 0 12.25 -4.80 13.80 -9.50 0.60 -1.75 0.75 -5.10 0.75 -15.25 0 -13 0 -13 2.10 -13.15 1.75 -0.15 2.70 0.20 5.45 1.85 6.05 3.65 14.20 5.55 19.70 4.55 3.65 -0.65 10.30 -2.95 14.50 -4.95 3.40 -1.65 7 -2.05 7.85 -0.90 0.30 0.30 1 1.95 1.60 3.60 1.45 3.90 4.90 9.75 5.80 9.75 0.35 0 0.90 0.75 1.25 1.70 0.95 2.95 2.75 4.05 6.35 3.85 1.70 -0.10 4.30 -2.70 6.10 -6.05 0.90 -1.70 2.35 -3.85 3.15 -4.80 1.35 -1.50 1.75 -1.70 4.10 -1.70 2.40 0 2.75 0.15 4.65 2.10 1.15 1.20 2.85 3.50 3.80 5.15 1 1.65 3.15 4.50 4.80 6.35 2.75 3.10 3 3.60 3.25 6.25 0.20 1.60 0.55 3.85 0.80 5.05 0.85 3.55 0.55 8.35 -0.85 15.20 -1.35 6.45 -1.35 6.45 -3.35 7.80 -4.55 3.05 -5.50 7.50 -3.60 16.10 1.10 4.95 1.95 7.05 6 15.25 8.25 16.45 14.55 32.45 13.15 33.35 -0.45 0.30 -0.40 0.40 0.15 0.40 1.30 0 3.10 6.60 3.55 13 0.20 3.15 0.55 7.40 0.75 9.40 0.30 3.05 0.25 3.60 -0.40 3.60 -1.30 0 -2 5.70 -0.75 6.15 0.35 0.15 0.25 0.30 -0.25 0.30 -0.65 0.05 -0.90 0.45 -0.90 1.60 0 1.90 -1.45 7 -3.85 13.40 -1.45 3.80 -1.65 4.75 -1.10 5.10 0.55 0.35 0.45 0.45 -0.30 0.45 -0.80 0 -0.85 0.10 -0.30 0.45 0.65 0.40 0.60 0.75 -0.25 2.30 -1.80 3.40 -6.20 8.50 -8.35 9.60 -2.45 1.30 -6.95 1.50 -8.85 0.40 -0.70 -0.40 -1.60 -0.70 -2 -0.75 -0.40 0 -3.45 2.50 -6.75 5.55 -6.20 5.70 -10.65 8.45 -13.65 8.45 -0.80 0 -3.80 -0.50 -6.65 -1.05 -6.30 -1.30 -10.40 -1.10 -16.20 0.75 -3.45 1.10 -4.80 1.90 -10 6.10 -3.30 2.60 -6.45 5.20 -7 5.70 -1.40 1.20 -6.90 2 -14.20 2 -6 0 -6 0 -12.95 -6.60z m67.75 -51.85 c2.75 -1.25 4.80 -4.20 6.10 -8.70 0.55 -1.95 1.50 -4.95 2.05 -6.60 1.25 -3.75 1.25 -4.95 0 -11.05 -1.50 -7.30 -2.35 -9.40 -4.80 -12.15 -1.75 -1.95 -2.60 -2.50 -4.30 -2.75 -3.25 -0.50 -5.75 -1.85 -7 -3.80 -1.75 -2.55 -2.90 -2.50 -5.85 0.40 -2.55 2.40 -2.55 2.45 -2.55 5.50 0 2.40 -0.30 3.75 -1.30 5.70 -0.70 1.40 -1.60 4.40 -1.95 6.60 -0.35 2.25 -1.05 5.75 -1.50 7.85 -0.90 3.80 -0.90 3.85 0.20 6.10 1.25 2.55 8.75 10.05 12.40 12.35 2.80 1.80 5.40 1.95 8.50 0.55z m-72.35 -7.05 c1.80 -0.25 5.80 -0.45 8.90 -0.45 3.10 0 6.05 -0.25 6.60 -0.55 1.35 -0.70 1.25 -2.60 -0.20 -4.90 -2.20 -3.50 -3.85 -7.20 -5.30 -11.80 -1.25 -4.05 -2.85 -8.45 -4.40 -12.30 -0.75 -1.95 -4.05 -5.70 -5.50 -6.30 -0.75 -0.30 -2.90 -0.70 -4.85 -0.90 -4 -0.35 -4.10 -0.30 -9.25 4.20 -5.70 5 -7.90 7.50 -8.80 9.90 -0.50 1.30 -1.35 3.05 -2 3.90 -0.60 0.85 -1.35 2.45 -1.65 3.60 -0.35 1.15 -0.80 2.20 -1.05 2.35 -0.30 0.15 -0.50 1.35 -0.50 2.60 0 1.85 0.25 2.50 1.50 3.65 0.80 0.75 2.20 1.65 3.10 2 0.90 0.35 3.45 1.45 5.65 2.40 4.65 2.10 10.85 3.65 13 3.30 0.85 -0.10 2.95 -0.45 4.75 -0.70z m-30.50 -12.65 c0 -0.90 0.30 -2.05 0.70 -2.60 0.35 -0.55 0.80 -1.65 1 -2.50 0.20 -0.80 1 -2.40 1.75 -3.50 0.80 -1.10 1.65 -2.80 2 -3.80 0.55 -1.70 4.25 -5.95 5.15 -5.95 0.20 0 1.80 -1.35 3.55 -3 1.75 -1.65 4.10 -3.65 5.30 -4.50 1.70 -1.25 2.05 -1.75 1.75 -2.65 -0.55 -1.85 -3.40 -5.50 -5.05 -6.45 -2.50 -1.50 -8.85 -2.50 -13.25 -2.15 -4.10 0.35 -6.20 1.35 -10.25 4.85 -3.70 3.20 -8.55 5.90 -10.70 5.90 -0.50 0 -1 0.40 -1.15 0.90 -0.55 1.75 0.70 4.35 3.65 7.35 2.80 2.85 3 3.15 3.55 6.65 0.55 3.40 0.75 3.80 3.45 6.65 2.55 2.65 7.15 6.25 8.20 6.40 0.20 0.05 0.35 -0.70 0.35 -1.60z m68.95 -18.85 c1.60 -0.80 4.05 -1.75 5.35 -2.05 1.35 -0.35 4.30 -1.45 6.55 -2.50 3.60 -1.65 4.30 -2.20 5.65 -4.35 1.25 -2.05 2.05 -2.70 5.10 -4.15 4.85 -2.25 9.95 -2.60 13.75 -0.95 2.45 1.05 2.60 1.05 3.85 0.25 0.95 -0.65 1.15 -1.05 0.85 -1.70 -0.70 -1.20 -3.05 -3.25 -5.30 -4.55 -3 -1.75 -4.50 -3.30 -5.75 -6.05 -1.10 -2.35 -1.15 -2.65 -0.55 -5.85 0.35 -1.85 1.15 -4.65 1.80 -6.20 1.10 -2.85 1.10 -2.85 -1.70 -1.05 -9.20 5.90 -23.15 9.65 -27.55 7.40 -3.50 -1.80 -5.40 0.90 -6.05 8.70 -0.80 10.15 -1.50 14.75 -2.35 16.30 -1.45 2.50 -5.10 4.60 -8.70 5 -1.75 0.20 -3.70 0.60 -4.40 0.85 -1.95 0.75 -0.20 1.40 2.75 1.10 1.40 -0.15 3.90 0.05 5.75 0.45 5.25 1.20 7.60 1.05 10.95 -0.65z"/>
 </g>
 <g fill="#699904">
  <path d="M227 428.95 c-3.15 -0.50 -6.55 -0.90 -7.50 -0.90 -2.05 -0.05 -12.35 -4 -12.70 -4.90 -0.15 -0.35 0.15 -1.40 0.70 -2.25 0.50 -0.90 1.50 -3.30 2.20 -5.35 0.70 -2 1.75 -4.25 2.40 -4.90 1.05 -1.15 1.45 -1.25 4.15 -1 3.80 0.30 8.55 2.40 9.60 4.25 0.45 0.75 4.15 4.50 8.25 8.35 4.05 3.85 7.35 7.15 7.40 7.40 0 0.65 -8.65 0.25 -14.50 -0.70z"/>
  <path d="M254.50 429 c0 -0.30 0.15 -0.50 0.40 -0.50 0.20 0 1.15 -0.65 2.10 -1.45 10.50 -8.80 13.80 -11.10 17.75 -12.35 5.75 -1.90 12.35 -2.15 19.20 -0.75 5.15 1.05 5.15 1.05 8.25 -0.40 2 -1 4.85 -3.15 8.25 -6.30 2.85 -2.65 5.95 -5.40 6.90 -6.10 1.70 -1.30 1.70 -1.30 4.45 0 3.35 1.65 4.10 1.65 7.20 0.10 2.70 -1.35 4.15 -1.60 3.90 -0.60 -0.35 1.45 -9.70 9.60 -15.85 13.80 -6.55 4.55 -6.75 4.65 -14.50 6.90 -15 4.45 -22.10 5.85 -33.30 6.65 -3.55 0.25 -7.30 0.60 -8.25 0.70 -4.75 0.65 -6.50 0.75 -6.50 0.30z"/>
  <path d="M192.65 353.45 c-1.95 -1.35 -4.40 -3.45 -5.40 -4.70 -1 -1.20 -2.30 -2.35 -2.85 -2.55 -0.55 -0.15 -0.85 -0.60 -0.70 -1 0.15 -0.35 0 -2.10 -0.30 -3.80 -0.45 -2.90 -0.75 -3.40 -3.45 -6.15 -3 -3.05 -3.95 -5.05 -3.95 -8.15 0 -1.95 0.85 -3.75 1.55 -3.30 1.15 0.70 6.65 -2.30 10.95 -6 4.35 -3.70 5.80 -4.25 11.55 -4.60 5.75 -0.30 11.90 0.60 14.60 2.20 2.45 1.40 4.95 5.30 5.25 8.10 0.20 2.40 0.20 2.40 -2.45 4.35 -1.50 1.10 -3.05 2.40 -3.45 2.90 -0.40 0.50 -2.30 2.15 -4.25 3.70 -4.20 3.35 -5.05 4.30 -5.80 6.55 -0.35 0.95 -1.20 2.65 -2 3.75 -0.75 1.10 -1.55 2.70 -1.75 3.50 -0.20 0.85 -0.65 1.95 -1 2.50 -0.40 0.55 -0.70 1.80 -0.70 2.80 0 1.20 -0.25 1.95 -0.80 2.15 -1.15 0.45 -1.15 0.45 -5.05 -2.25z"/>
  <path d="M253.85 335.25 c-1.60 -0.35 -3.90 -0.50 -5.10 -0.35 -2.85 0.30 -4.60 -0.15 -5.30 -1.45 -0.95 -1.80 0.70 -2.85 5.45 -3.65 4.60 -0.70 7.60 -2.40 9.20 -5.05 0.90 -1.55 1.65 -6.75 2.15 -15 0.15 -2.45 0.50 -5.30 0.75 -6.30 0.60 -2.10 2.55 -4.45 3.85 -4.50 1.85 -0.10 3.45 0.20 4.85 0.90 0.90 0.45 2.20 0.65 3.50 0.50 3.05 -0.40 10.10 -2.55 13.85 -4.25 3.80 -1.75 13.20 -7.25 14.80 -8.75 1.15 -1 2.65 -0.85 2.65 0.30 0 0.35 -0.70 1.15 -1.50 1.75 -1.90 1.45 -4.30 6.15 -5.45 10.80 -0.90 3.55 -0.90 3.55 0.20 5.80 1.35 2.60 2.60 3.85 5.85 5.70 3.30 1.90 5.40 4.45 5.40 6.50 0 3.20 -3.75 4.25 -8.25 2.25 -3.15 -1.40 -6 -1.10 -10.65 1.05 -3.05 1.40 -3.85 2.05 -5.10 4.10 -1.35 2.15 -2.05 2.70 -5.65 4.35 -2.25 1.05 -5.20 2.15 -6.55 2.50 -1.30 0.30 -3.75 1.25 -5.35 2.05 -2.55 1.30 -3.45 1.50 -6.80 1.45 -2.15 -0.05 -5.20 -0.35 -6.80 -0.70z"/>
  <path d="M79.30 261.65 c-0.70 -3.55 -1.25 -9.05 -0.95 -10.05 0.15 -0.65 0.65 -1.10 1.20 -1.10 0.75 0 0.95 0.35 0.95 1.65 0 0.95 0.15 3.75 0.30 6.25 0.30 4 0.25 4.60 -0.45 4.60 -0.45 0 -0.90 -0.55 -1.05 -1.35z"/>
  <path d="M109.35 257.55 c-3.35 -2.15 -6.65 -8.05 -8.60 -15.30 -0.35 -1.40 -1.25 -3.55 -1.95 -4.75 -1.55 -2.70 -1.80 -7.25 -0.50 -9.45 1.15 -1.95 3.60 -3.45 6.45 -4 1.40 -0.25 3.80 -1.05 5.40 -1.75 2.50 -1.15 3.55 -1.30 8.25 -1.30 5.35 0 5.35 0 9.25 3.15 3.85 3.10 3.85 3.10 3.55 5.60 -0.35 2.90 -0.35 3.30 0.10 8.30 0.40 4.65 -0.45 6.95 -4.20 11.10 -1.40 1.55 -2.90 3.45 -3.30 4.20 -1.25 2.45 -3.40 4 -6.20 4.60 -3.70 0.75 -6.60 0.65 -8.25 -0.40z"/>
  <path d="M64.50 243.50 c0 -1.85 1.15 -2.50 4.45 -2.50 2.30 0 2.55 0.10 2.55 1.15 0 1 -0.45 1.25 -3.20 2 -4.05 1.05 -3.80 1.10 -3.80 -0.65z"/>
  <path d="M292.50 234.75 c0 -0.40 -0.40 -0.75 -0.85 -0.75 -0.75 0 -0.80 -0.10 -0.15 -0.50 0.65 -0.40 0.65 -0.50 -0.10 -0.50 -1.05 0 -4.10 -4.95 -5.90 -9.65 -0.75 -1.95 -1.70 -3.75 -2.10 -4.05 -0.50 -0.30 -2.05 0.15 -5.20 1.60 -9.40 4.30 -16 5.60 -22.95 4.65 -5.30 -0.75 -9.40 -2.15 -13.50 -4.60 -4.65 -2.85 -4.90 -2.60 -4.50 3.55 0.35 4.70 0.30 5 -0.55 5 -0.75 0 -1.15 -0.70 -1.80 -3.40 -0.50 -1.85 -1.20 -4.60 -1.65 -6.10 -0.85 -3.15 -1 -7.60 -0.25 -9.05 1 -1.80 3.50 -1.25 7.30 1.60 5.90 4.40 10.30 6.20 16.20 6.75 5.30 0.50 8.45 -0.35 16.75 -4.55 6.40 -3.20 7.85 -3.75 10 -3.75 2.75 0 5.20 1.20 6.45 3.10 0.40 0.65 1 3.45 1.30 6.30 0.30 2.80 1 6.75 1.50 8.75 1.10 4 1.25 6.35 0.50 6.35 -0.25 0 -0.50 -0.35 -0.50 -0.75z"/>
  <path d="M55.05 233.35 c-2.40 -0.90 -8.25 -7.40 -10.05 -11.15 -2.30 -4.70 -2 -8.20 0.60 -8.20 2.30 0 7.30 -3.90 9.45 -7.35 0.85 -1.35 1.35 -1.65 2.80 -1.65 0.95 0 2.35 0.40 3.05 0.95 2.70 1.90 6.50 3.50 9.65 4.05 1.75 0.35 3.50 0.80 3.85 1.10 0.35 0.30 0.60 1.70 0.60 3.25 0 2.25 -0.25 3.10 -1.45 4.60 -2.45 3.15 -3.90 5.70 -4.75 8.55 -1 3.40 -1.65 4.30 -3.90 5.20 -2.55 1.10 -7.80 1.40 -9.85 0.65z"/>
  <path d="M360.75 221.60 c-1.10 -0.50 -2.35 -1.35 -2.75 -1.85 -0.40 -0.50 -1.55 -1.40 -2.55 -2.05 -1 -0.60 -2.20 -2 -2.70 -3.05 -0.50 -1.05 -2.55 -3.60 -4.55 -5.70 -4.85 -5 -5.95 -7.40 -5.95 -12.95 0 -3.95 0.15 -4.45 1.55 -6.75 0.90 -1.40 1.75 -3.35 1.90 -4.40 0.45 -2.35 2.10 -6.30 3.15 -7.45 2.25 -2.50 14.10 1.05 18.90 5.55 0.85 0.80 2.45 2 3.60 2.75 1.55 0.95 2.25 1.75 2.60 3.15 0.30 1.05 1.10 2.75 1.80 3.80 1.30 1.90 1.30 1.90 1.15 11.75 -0.15 9.85 -0.15 9.85 -2.90 12.65 -1.50 1.50 -3.10 3.30 -3.55 3.95 -0.70 1.05 -1.25 1.25 -4.25 1.35 -2.60 0.15 -3.95 -0.05 -5.45 -0.75z"/>
  <path d="M399.70 182.50 c-1.85 -0.75 -3.75 -3.85 -4.95 -7.90 -0.70 -2.45 -1.85 -4.90 -3.15 -6.80 -1.30 -1.80 -2.10 -3.50 -2.10 -4.40 0 -1.90 -1.05 -4.25 -2.65 -6.20 -0.90 -1.05 -1.35 -2.20 -1.35 -3.35 0 -1.55 0.25 -1.90 2.15 -3 2.55 -1.50 8 -2.60 11.15 -2.20 3.10 0.35 7.10 2.50 10.40 5.60 2.80 2.65 2.80 2.65 2.80 5.70 0 1.65 -0.25 4.15 -0.55 5.55 -0.50 2.30 -0.45 2.70 0.75 4.70 1.85 3.15 4 4.80 6.20 4.80 3.80 0 4.10 0.30 4.10 3.50 0 2.75 -0.10 2.90 -1.35 3.25 -0.75 0.15 -3.40 0.20 -5.90 0 -3.50 -0.25 -5 -0.15 -6.70 0.45 -2.35 0.85 -7.10 1 -8.85 0.30z"/>
  <path d="M94 182.05 c-3.80 -0.75 -4 -1.10 -4 -6.05 0 -3.25 -0.25 -5.15 -0.95 -6.90 -0.55 -1.35 -1.15 -4.35 -1.30 -6.65 -0.40 -4.85 -0.60 -4.55 5.75 -8.90 3.25 -2.25 4.05 -2.55 6.25 -2.55 2.10 0 2.90 -0.30 5 -1.90 1.35 -1 3.45 -3.20 4.70 -4.80 1.60 -2.10 2.95 -3.25 4.75 -4.10 5.15 -2.40 13.40 -1.15 15.20 2.30 0.95 1.80 0.40 9.10 -1.15 15.20 -1.10 4.20 -1.25 5.55 -0.95 9.25 0.40 5.05 -0.15 6.05 -3.15 6.05 -1.35 0 -2.25 0.45 -3.75 1.80 -1.10 1 -2.60 2.05 -3.35 2.35 -0.70 0.35 -2.40 1.25 -3.70 2.05 -2.10 1.25 -2.70 1.40 -4.85 1.10 -2 -0.25 -3.05 -0.10 -5.45 0.95 -3.05 1.25 -5.55 1.50 -9.05 0.80z"/>
  <path d="M339.95 160.75 c-1 -0.40 -2.55 -1.15 -3.50 -1.70 -0.95 -0.60 -2.05 -1.05 -2.50 -1.05 -0.55 0 -1.25 -1 -1.95 -2.85 -1.65 -4.10 -5.15 -8.75 -8.95 -11.80 -2.15 -1.70 -3.55 -4.75 -3.55 -7.65 0 -1.90 0.20 -2.30 1.85 -3.55 1.55 -1.20 2.40 -1.45 5.65 -1.55 3.60 -0.20 3.80 -0.15 4.35 1 0.35 0.80 1.30 1.45 2.70 1.85 1.20 0.35 3.50 1.30 5.10 2.10 1.60 0.80 3.45 1.45 4.15 1.45 1.80 0 6.90 3.15 10.35 6.45 2.55 2.40 2.85 2.90 2.85 4.75 0 1.35 -0.65 3.35 -2.10 6.15 -1.95 3.95 -2.20 4.25 -5.05 5.65 -3.30 1.65 -6.25 1.90 -9.40 0.75z"/>
  <path d="M38.10 131.75 c0.10 -1.25 -0.05 -2.25 -0.30 -2.25 -0.85 0 2.35 -3.05 5.35 -5.10 9.05 -6.15 20 -8.70 28.80 -6.65 3.30 0.80 7.05 2.60 7.05 3.40 0 0.55 -3.05 0.20 -7.65 -0.85 -3.10 -0.75 -3.65 -0.75 -6.50 0 -1.70 0.40 -4.20 0.95 -5.60 1.15 -3.60 0.50 -6.80 2.45 -12.75 7.80 -4.40 3.95 -5.50 4.75 -6.95 4.75 -1.65 0 -1.65 0 -1.45 -2.25z"/>
 </g>
 <g fill="#568702">
  <path d="M106.25 285.25 c-9.05 -2 -16 -6 -20.90 -12.05 -3.85 -4.70 -5.40 -8.40 -5.90 -13.80 -1.40 -14.25 -2.15 -15.90 -7.45 -15.90 -1.10 0 -2 -0.20 -2 -0.50 0 -0.65 -1.80 -0.65 -3.05 0 -0.50 0.30 -0.95 0.85 -0.95 1.20 0 1.80 -16.90 2.55 -22.70 1.05 -11.80 -3.10 -19.30 -12.40 -19.30 -23.95 0 -4.95 0.95 -8.85 3.35 -13.75 3.10 -6.25 7.45 -10.30 15.40 -14.30 3.30 -1.65 4.15 -2.35 4.95 -3.95 1.55 -3.15 0.65 -5.05 -5.40 -11.30 -7.50 -7.70 -10.20 -12.15 -12.25 -20.20 -1.30 -5 -1.30 -9.05 -0.05 -14.10 1.90 -7.50 7.45 -16.40 9.70 -15.55 0.90 0.35 0.90 1.25 -0.05 3.70 -0.20 0.55 0.50 0.15 1.95 -1.10 1.25 -1.10 3.90 -3.40 5.85 -5.10 4.25 -3.75 6.90 -5.20 10.30 -5.70 1.40 -0.20 4.10 -0.75 6 -1.25 4.60 -1.15 9.40 -0.50 15.10 2 4.65 2.05 5.80 2.15 8 0.80 1.20 -0.70 2.25 -2.25 4.10 -6.10 1.35 -2.85 3.55 -6.50 4.90 -8.15 3.05 -3.75 9.55 -8.20 15.05 -10.30 5.05 -1.90 6.90 -3.45 9.05 -7.45 1.70 -3.20 2.40 -3.70 2.65 -1.95 0.10 0.80 0.80 1.30 2.55 1.85 2.30 0.75 2.35 0.80 2.35 2.75 0 2 0 2 -3.25 1.75 -2 -0.20 -3.50 -0.05 -4 0.30 -0.80 0.60 -2.40 4.80 -3.55 9.55 -1 3.90 -0.35 11.15 1.20 14.10 0.35 0.60 0.60 2.40 0.60 4 0.05 2.90 0.05 2.90 5.05 5.90 2.75 1.65 5.90 3.65 7.05 4.40 2 1.45 2 1.45 1.70 4.75 -0.20 1.85 -0.40 8.10 -0.45 13.85 -0.15 12.60 0 13.25 4.55 17.15 3.70 3.20 5.60 6.70 5.60 10.25 0 1.30 -0.25 2.85 -0.55 3.40 -0.30 0.55 -0.70 3.10 -0.90 5.60 -0.55 6.80 0.05 8.40 4.55 12.35 2 1.70 4.35 3.45 5.20 3.90 1.55 0.70 1.80 0.70 4.25 -0.30 2.90 -1.20 6.35 -1.45 7.55 -0.45 0.45 0.30 1.20 2.05 1.65 3.85 0.50 1.80 1.55 4.20 2.50 5.50 0.90 1.25 2.75 4.40 4.20 7.05 2.95 5.50 3.20 7.40 1.30 10.15 -1.20 1.80 -1.20 1.80 0.65 1.80 2.25 0 6.05 -1.70 10.10 -4.55 2.60 -1.85 3.40 -2.20 6.15 -2.35 2.60 -0.15 3.30 -0.05 4.50 0.90 1.10 0.85 1.35 1.50 1.35 3.15 0 2.05 0 2.05 -1.45 0.65 -2.15 -2.10 -3.55 -1.85 -6.90 1.15 -3.60 3.25 -7.80 5.30 -12.65 6.35 -3.45 0.70 -4.10 0.70 -8.05 -0.10 -4.75 -0.95 -5.75 -0.80 -6.40 0.95 -0.75 2 1.10 10.85 3.15 15 1 2 1.80 4.25 1.80 5 0 1.15 -0.20 1.35 -1.45 1.35 -0.80 0 -1.70 -0.35 -2.05 -0.75 -0.50 -0.60 -0.85 -0.55 -2.35 0.60 -2.55 1.95 -4 4.90 -5.10 10.25 -1.10 5.45 -2.10 7.85 -5.20 12.20 -2.20 3.05 -2.20 3.05 -3.55 1.90 -0.70 -0.65 -2.20 -1.45 -3.30 -1.75 -1.90 -0.55 -2.55 -0.45 -9.15 1.70 -10.35 3.30 -18.50 4.15 -25.60 2.60z m9.85 -28.80 c2.80 -0.60 4.95 -2.15 6.20 -4.60 0.40 -0.75 1.90 -2.65 3.30 -4.20 4.40 -4.85 5.35 -8.90 3.15 -13.20 -0.70 -1.35 -0.75 -1.65 -0.10 -2.65 1.55 -2.30 1.30 -2.90 -2.55 -6.10 -3.65 -3.05 -3.65 -3.05 -7.65 -3.10 -3.30 -0.05 -4.55 0.20 -6.85 1.20 -1.60 0.70 -3.95 1.50 -5.35 1.75 -4.20 0.80 -7.25 3.65 -7.25 6.80 0 0.75 0.60 2.40 1.30 3.65 0.70 1.20 1.60 3.35 1.95 4.75 1.95 7.25 5.25 13.15 8.60 15.30 1.70 1.05 1.95 1.10 5.25 0.40z m-52.75 -25.25 c1.65 -0.60 2.30 -1.20 3.10 -2.90 0.60 -1.15 1.05 -2.45 1.05 -2.85 0 -1.05 1.80 -4.30 4.05 -7.30 2 -2.65 2.45 -4.60 1.35 -5.55 -0.35 -0.30 -2.10 -0.75 -3.85 -1.10 -3.20 -0.55 -6.95 -2.15 -9.75 -4.15 -1.45 -1.05 -1.45 -1.05 -2.25 0.20 -2.65 4.05 -7.55 7.95 -10 7.95 -2.25 0 -2.40 1.40 -0.60 5.10 1.90 3.90 7.70 10.35 10.10 11.20 1.90 0.65 3.65 0.50 6.80 -0.60z m38.05 -51.40 c3.80 -1.60 5.65 -1.95 7.20 -1.35 1.05 0.40 1.70 0.25 3.50 -0.85 1.15 -0.75 2.75 -1.65 3.50 -1.95 0.75 -0.35 2.25 -1.40 3.30 -2.40 1.50 -1.30 2.40 -1.75 3.75 -1.75 2.90 0 3.35 -0.85 3 -5.70 -0.25 -3.45 -0.05 -5.05 1 -9.35 1.65 -6.80 2.05 -10.85 1.25 -12.45 -0.35 -0.70 -1.65 -1.75 -2.90 -2.35 -4.75 -2.45 -10.40 -0.80 -13.95 4.05 -1.15 1.50 -2.85 3.40 -3.90 4.15 -1 0.75 -2.35 1.90 -3 2.55 -0.95 0.85 -1.40 1 -2.15 0.60 -1.75 -0.95 -3.30 -0.50 -7 2.05 -6 4.10 -6.05 4.15 -5.65 7.40 0.15 1.55 0.70 3.90 1.20 5.20 0.70 1.70 0.95 3.70 0.95 6.85 0 4.95 0.20 5.30 4 6.05 2.75 0.55 2.85 0.50 5.90 -0.75z"/>
  <path d="M326.65 271.45 c1.50 -5.95 3.35 -15.05 3.35 -16.55 0 -1.05 -0.20 -2.85 -0.50 -4 -0.25 -1.20 -0.60 -3.45 -0.80 -5.05 -0.25 -2.65 -0.50 -3.15 -3.25 -6.25 -1.65 -1.85 -3.80 -4.70 -4.80 -6.35 -2.15 -3.75 -5.50 -7.25 -6.90 -7.25 -0.60 0 -1.70 0.65 -2.45 1.45 -0.80 0.80 -1.75 1.35 -2.10 1.20 -1.60 -0.60 -0.25 -5.55 1.75 -6.65 1.55 -0.80 5.60 -0.55 7.55 0.45 2.65 1.45 3.50 0.75 8.15 -6.45 1.05 -1.65 0.65 -3.85 -1.70 -10.05 -0.80 -2.05 -1.45 -4.25 -1.45 -4.80 0 -0.55 -0.35 -2 -0.75 -3.15 -0.40 -1.15 -0.75 -3.45 -0.75 -5.10 0 -3.40 -0.20 -3.10 6.95 -8.90 7.65 -6.20 8.30 -7.55 6.30 -13.05 -1.40 -3.90 -2.70 -14.05 -2.05 -15.75 0.35 -0.90 0.45 -0.85 1.05 0.30 0.40 0.70 0.70 1.05 0.75 0.85 0 -0.25 1.20 0.20 2.65 1 1.40 0.80 3.55 1.75 4.70 2.15 2.05 0.60 2.25 0.60 5.30 -0.90 3.05 -1.50 3.25 -1.70 5.25 -5.75 1.15 -2.25 2.10 -4.40 2.10 -4.65 0 -0.95 -5.60 -5.90 -8.80 -7.85 -1.70 -1 -3.65 -1.85 -4.40 -1.85 -0.70 0 -2.55 -0.65 -4.15 -1.45 -1.60 -0.80 -3.90 -1.75 -5.10 -2.10 -1.45 -0.45 -2.35 -1.05 -2.70 -1.85 -0.50 -1.10 -0.80 -1.20 -2.95 -1 -2.45 0.25 -5.90 2.35 -5.90 3.60 0 1.10 1.95 5.20 2.65 5.45 0.30 0.15 -0.35 0.30 -1.45 0.30 -1.40 0.05 -2.50 -0.30 -3.40 -1 -1.20 -0.95 -1.30 -1.30 -1.30 -5 0 -5.15 1.15 -7.45 7.20 -14.65 1.05 -1.25 2.40 -3.60 3.05 -5.15 1 -2.50 1.45 -3.05 3.40 -4 4.30 -2.15 6.30 -6.05 6.35 -12.40 0 -4.95 -1 -10.30 -2.95 -15.40 -1.65 -4.30 -2.75 -6.25 -3.85 -6.70 -1.50 -0.55 -0.75 -2 1.45 -2.60 5.85 -1.55 11.70 -2.55 15 -2.55 3.85 0 9.95 1.35 13.80 3.05 8.25 3.60 13.85 12.60 15.05 24 0.65 6.25 2.15 8.70 5.70 9.30 2.55 0.40 4.30 -0.50 7.65 -4.05 5.40 -5.75 11.80 -9.40 18.45 -10.55 5.40 -0.95 7.35 -0.95 12.55 -0.05 4.95 0.90 7.50 2.15 10.95 5.35 5.85 5.55 7.60 14.70 4.65 24.25 -1.40 4.55 -1.15 7.70 0.85 9.75 1.95 2.05 3.20 2.50 8.25 2.95 5.50 0.50 9.65 2.25 12.50 5.35 2.50 2.70 3.65 5.25 5.25 11.50 3.10 12.35 0.15 21.55 -8.85 27.65 -2.80 1.95 -4.45 4.30 -4.45 6.50 0 1.70 1.35 3.80 4.75 7.55 3.60 3.90 5.35 7.25 6.25 11.85 1.30 6.55 -0.75 14.30 -5.65 21.65 -5 7.55 -11.35 12.10 -22.10 15.95 -3.90 1.45 -5.30 1.70 -10.75 1.90 -7.35 0.25 -10.65 -0.40 -16.40 -3.25 -4.35 -2.15 -7.75 -5.05 -10.80 -9.35 -2.75 -3.85 -4.35 -4.95 -7.15 -4.95 -2.40 0 -3.60 0.70 -9.25 5.55 -2 1.75 -4.90 4.20 -6.40 5.50 -2.85 2.50 -3.60 2.60 -5.30 1.05 -0.90 -0.85 -1.50 -0.95 -3.75 -0.65 -1.50 0.15 -3.20 0.60 -3.75 1 -0.60 0.35 -4.20 1.95 -8 3.50 -5.70 2.30 -7.65 2.90 -10.95 3.15 -3.95 0.30 -3.95 0.30 -4.55 4.80 -0.30 2.70 -1.10 5.80 -1.95 7.75 -2.15 5.05 -2.15 6.15 -0.15 7.55 1.60 1.15 1.85 1.20 10.05 1.05 7.50 -0.20 8.35 -0.10 8.35 0.65 0 0.45 -0.80 1.15 -1.85 1.65 -1.60 0.70 -3.55 0.85 -12.15 0.85 -5.65 0 -10.55 0.20 -10.95 0.45 -0.55 0.35 -0.65 0.20 -0.40 -0.75z m42.35 -52 c0.40 -0.60 2 -2.40 3.50 -3.90 2.75 -2.80 2.75 -2.80 2.90 -11.15 0.15 -8.30 0.15 -8.35 -1.15 -10.25 -0.70 -1.05 -1.50 -2.75 -1.80 -3.80 -0.35 -1.40 -1.05 -2.20 -2.60 -3.15 -1.15 -0.75 -2.75 -1.95 -3.60 -2.75 -3.25 -3.05 -13.40 -7.20 -15.15 -6.15 -1.15 0.65 -3.45 5.45 -3.85 7.95 -0.20 1.10 -1.05 3.10 -1.90 4.50 -1.30 2.05 -1.60 2.95 -1.55 5.25 0 3.95 1.60 6.95 5.90 11.45 2 2.10 4.05 4.65 4.55 5.70 0.50 1.05 1.70 2.45 2.70 3.05 1 0.65 2.15 1.55 2.55 2.05 2.25 2.75 8 3.45 9.50 1.20z m38.25 -38.75 c1.80 -0.65 3.55 -0.80 7.20 -0.60 6.10 0.30 6.55 0.20 6.55 -1.60 0 -1.55 -0.90 -2 -4.20 -2 -1.65 0 -2.30 -0.35 -4.05 -2.20 -2.90 -2.95 -4.15 -6.30 -3.30 -8.60 0.35 -0.95 0.75 -2.95 0.90 -4.45 0.30 -2.70 0.30 -2.70 -2.60 -5.45 -2.65 -2.45 -6.35 -4.75 -9.10 -5.55 -1.70 -0.50 -7.15 0.70 -9.50 2.10 -1.20 0.70 -2.15 1.35 -2.15 1.50 0 0.15 0.60 0.95 1.35 1.85 1.60 1.95 2.65 4.30 2.65 6.20 0 0.90 0.80 2.60 2.10 4.40 1.30 1.90 2.45 4.35 3.15 6.80 2.15 7.50 5.15 9.55 11 7.60z"/>
  <path d="M261.85 176.25 c-5 -4.70 -9.15 -7.45 -13.10 -8.70 -5.50 -1.80 -8.45 -3.65 -10.35 -6.50 -1.25 -1.80 -1.15 -4.60 0.20 -6.30 1 -1.30 1.20 -1.35 4.25 -1.05 3.20 0.35 3.20 0.35 5.85 -2.45 2.35 -2.50 2.90 -2.80 5.20 -3.10 2 -0.20 3.30 0 6.20 1 2 0.75 5.10 1.55 6.90 1.85 2.20 0.40 4.10 1.10 5.85 2.30 1.70 1.10 3.25 1.70 4.35 1.70 1.60 0 1.90 0.25 4.15 3.85 2.15 3.45 2.40 4.20 2.35 6.65 0 1.50 -0.30 3.70 -0.60 4.80 -0.75 2.65 -4.35 7.20 -5.65 7.20 -0.55 0 -1.85 0.45 -2.95 1 -1.45 0.75 -2.90 1 -5.60 1 -3.65 -0.05 -3.65 -0.05 -7.05 -3.25z"/>
  <path d="M204.60 118.90 c-0.25 -0.35 -0.75 -1.55 -1.05 -2.70 -0.55 -2 -1 -2.75 -4.55 -7.45 -0.95 -1.25 -2.45 -3.25 -3.25 -4.40 -0.85 -1.15 -2.45 -2.55 -3.50 -3.15 -2 -1 -2 -1 -1.95 -5.75 0 -2.60 0.20 -5.20 0.40 -5.75 0.30 -0.80 0 -1.50 -1.05 -2.75 -2.40 -2.85 -3.75 -5.85 -4 -8.90 -0.25 -2.50 -0.15 -3.05 0.80 -4 0.65 -0.65 1.70 -1.05 2.75 -1.05 2.75 0 4.20 -0.80 7.85 -4.35 3.45 -3.30 3.45 -3.30 3.45 -6.45 0 -3.15 0 -3.15 2.65 -3.90 4.10 -1.20 10.75 -2.05 15.10 -2 3.40 0.05 4.50 0.25 7.35 1.60 2.45 1.15 4.10 1.60 6 1.60 5.85 0.05 11.70 2.50 12.80 5.40 0.30 0.75 0.70 2.30 0.85 3.45 0.40 2.40 0.60 2.65 6.50 6.55 5.75 3.80 10.25 7.90 11.75 10.75 1.15 2.20 1.20 2.30 0.50 7.15 -0.70 5.45 -2.05 8.10 -5.15 10.30 -1.50 1.05 -2.10 1.15 -7.85 1.10 -5.40 -0.05 -6.80 -0.20 -10.45 -1.40 -2.30 -0.75 -5.65 -2.30 -7.45 -3.40 -3.90 -2.40 -6.20 -2.90 -7.55 -1.70 -0.95 0.85 -0.95 0.90 0 2.55 0.80 1.35 0.95 2.40 0.85 6.10 -0.15 4.40 -0.15 4.40 -3.15 4.45 -1.65 0 -3.40 0.05 -3.85 0.10 -0.50 0.05 -2.55 1.65 -4.50 3.55 -2 1.85 -4.35 3.80 -5.25 4.25 -1.90 0.95 -4.30 1.05 -5.05 0.20z"/>
 </g>
 <g fill="#457600">
  <path d="M172.75 298.80 c-0.55 -0.35 -4.35 -1.85 -8.45 -3.35 -4.10 -1.45 -8.80 -3.50 -10.50 -4.60 -3.30 -2.10 -9.30 -7.70 -9.30 -8.65 0 -0.35 1.05 -2 2.30 -3.75 2.90 -3.90 3.60 -5.55 4.75 -11.40 1.15 -5.55 2.60 -8.35 5.55 -10.50 2.45 -1.80 3.40 -1.90 4.65 -0.55 0.50 0.55 1.20 1 1.50 1 0.35 0 0.75 1.05 0.90 2.55 0.20 1.65 1.45 4.80 3.55 9.10 3.40 7 3.70 7.85 5.30 14.10 1.10 4.25 2.30 14.80 1.80 16 -0.35 0.95 -0.80 0.95 -2.05 0.05z"/>
  <path d="M335 271.05 c0 -0.30 -0.80 -0.85 -1.75 -1.30 -3.55 -1.70 -4 -4.05 -1.85 -9.05 2.25 -5.20 2.70 -7 2.70 -10.35 0.05 -1.70 0.25 -3.40 0.55 -3.70 0.30 -0.40 1.70 -0.65 3.65 -0.65 2.75 0 4.30 -0.45 10.75 -3 4.10 -1.65 8 -3.35 8.65 -3.75 0.60 -0.40 3 -0.85 5.30 -1.05 3.90 -0.30 4.30 -0.25 5.20 0.75 0.55 0.55 1.25 1.05 1.65 1.05 0.85 0 0.80 0.25 -0.15 1.75 -0.40 0.65 -1.65 4.30 -2.75 8.10 -1.10 3.80 -2.55 7.85 -3.25 9 -1.75 3 -6.30 7.80 -9.15 9.60 -2.35 1.50 -2.50 1.55 -9.95 1.75 -4.15 0.15 -8 0.45 -8.55 0.80 -0.65 0.30 -1.05 0.35 -1.05 0.05z"/>
  <path d="M217.45 256.85 c-3.15 -0.90 -6.35 -2.85 -8.90 -5.50 -2.50 -2.55 -12.25 -17.15 -15.45 -23.15 -1.80 -3.30 -4.80 -3.40 -9.25 -0.20 -4.60 3.30 -7.60 4.50 -11.45 4.50 -5.15 0 -6.20 -0.90 -3.60 -3.15 0.70 -0.60 1.60 -1.75 2.05 -2.50 0.65 -1.35 0.60 -1.60 -1.90 -6.25 -1.40 -2.65 -3.35 -5.85 -4.25 -7.15 -0.95 -1.30 -2 -3.65 -2.50 -5.65 -1.15 -4.50 -2 -4.95 -6.30 -3.15 -1.75 0.75 -3.50 1.35 -3.90 1.35 -1.65 -0.05 -4.95 -2 -8.40 -5 -4.80 -4.20 -5.35 -5.95 -4.65 -14.10 0.30 -3.10 0.80 -6.35 1.10 -7.20 1.05 -2.65 -0.50 -5.80 -4.85 -9.95 -2 -1.90 -3.95 -4.30 -4.35 -5.25 -0.55 -1.35 -0.65 -4.55 -0.60 -13.75 0.05 -6.60 0.30 -12.80 0.50 -13.85 0.35 -1.70 0.25 -1.90 -1.65 -3.25 -1.15 -0.75 -4.30 -2.75 -7.05 -4.40 -5 -3 -5 -3 -5.05 -5.90 0 -1.85 -0.35 -3.60 -1 -4.85 -0.55 -1.05 -0.85 -2.30 -0.70 -2.70 0.15 -0.45 -0.05 -1.35 -0.50 -2 -0.65 -1.05 -0.70 -2 -0.30 -6.40 0.25 -2.90 0.80 -6.20 1.25 -7.45 0.45 -1.20 1.10 -3.20 1.50 -4.45 0.45 -1.45 1.30 -2.70 2.30 -3.45 1.50 -1.15 1.65 -1.15 3.30 -0.35 1.85 0.90 3.15 1.05 3.15 0.35 0 -0.20 -1.05 -0.75 -2.35 -1.15 -3.35 -1.05 -3.40 -2.35 -0.40 -7.15 3.55 -5.75 10.60 -11.60 16.25 -13.55 2.95 -1.05 11.65 -1.80 15.75 -1.45 1.95 0.20 5.60 0.90 8.10 1.65 5.35 1.50 7.65 1.25 9.30 -1 1.30 -1.75 1.25 -4.20 -0.30 -9.40 -2.15 -7.40 -2.60 -12.35 -1.60 -18.95 1.25 -8.65 3.10 -12.60 8.20 -17.50 3.70 -3.55 12.10 -7.65 18 -8.85 5.65 -1.10 16.10 -0.75 21.75 0.75 12.85 3.40 21.45 11.55 25.35 23.80 2.20 7.10 3.20 9.10 5.05 10.30 2.30 1.40 4.70 1 9.05 -1.65 5.60 -3.45 6 -3.55 13.45 -3.80 5.90 -0.20 7.30 -0.05 10.25 0.85 6.30 1.90 10.85 6.05 13.90 12.70 3.30 7.15 3.40 12.60 0.50 22.40 -1.55 5.10 -1.55 6.35 -0.10 8.50 1.70 2.55 3.45 3.20 8.60 3.20 5.75 0 7.55 -0.95 11.85 -6.35 3.40 -4.20 6.85 -7.10 11.20 -9.20 4.25 -2.05 5.50 -1.15 8.25 6.15 0.80 2.15 1.85 5.70 2.30 7.90 0.90 4.55 1 12.60 0.20 15.60 -0.80 2.95 -3.20 5.95 -5.85 7.25 -2 1 -2.45 1.55 -3.45 4.05 -0.65 1.55 -2 3.90 -3.05 5.15 -5.70 6.75 -7.30 9.80 -7.10 13.35 0.15 2.50 0.25 2.65 2.65 4.20 5.05 3.30 9.80 8.85 11.65 13.65 0.60 1.50 1.30 4.95 1.60 7.60 0.25 2.70 1.05 6.40 1.80 8.45 1.65 4.55 1.50 7.95 -0.45 10.50 -0.70 0.95 -3.35 3.40 -5.90 5.45 -7 5.65 -7.10 5.75 -6.85 7.90 0.15 1 0.50 3 0.85 4.35 0.65 2.50 0.85 3.15 2.55 8.25 0.55 1.50 1.35 4.15 1.80 5.85 0.80 3.05 0.80 3.05 -0.35 5.05 -4.95 8.25 -6.80 9.35 -11.60 7.05 -1.50 -0.75 -2.65 -1 -3.55 -0.75 -1.45 0.35 -3.60 3.30 -2.75 3.80 0.90 0.60 -4.70 9.40 -6.90 10.85 -1.95 1.30 -7.70 1.20 -9.20 -0.15 -2.25 -2 -4.10 -7.90 -4.95 -15.85 -0.30 -2.80 -0.90 -5.60 -1.30 -6.25 -0.90 -1.40 -3.60 -3.10 -4.95 -3.10 -0.55 0 -4.35 1.70 -8.50 3.75 -8.60 4.35 -11.20 5 -18.25 4.60 -7.15 -0.45 -11.20 -2 -17.75 -6.85 -3.25 -2.40 -3.50 -2.50 -4.15 -1.65 -0.90 1.20 -0.50 4.60 1.25 9.75 1.30 3.90 1.35 4.65 1.40 13.40 0 6.60 -0.20 9.95 -0.70 11.75 -1.90 6.45 -12 11.55 -19.10 9.60z m9.35 -4.65 c1.30 -0.80 3.05 -2.30 3.85 -3.35 1.45 -1.75 1.55 -2.20 2 -8.35 0.60 -8.90 0.45 -9.15 -10.20 -21.15 -1.80 -2.05 -1.80 -2.05 -4.25 -0.45 -3.35 2.10 -5.80 3.10 -9.95 3.95 -3.70 0.75 -4.85 1.55 -7.05 4.70 -1.15 1.70 -1.25 2.05 -0.75 3.60 0.35 0.95 1.45 2.95 2.50 4.40 1.05 1.50 3.05 4.60 4.45 6.95 2.90 4.90 6.85 9 10.10 10.50 3 1.40 6.25 1.10 9.30 -0.80z m75.40 -21.85 c0.85 -0.90 2.40 -3.20 3.45 -5.10 1.05 -1.95 2.70 -4.75 3.65 -6.25 1.65 -2.65 1.70 -2.80 1.70 -8.05 0 -5.65 0.25 -6.60 3.05 -12.10 2.05 -4 1.90 -6.25 -0.60 -7.45 -0.95 -0.50 -2.80 -1.05 -4.05 -1.20 -2.30 -0.30 -2.30 -0.30 -3.10 2.40 -1.05 3.65 -4 7.70 -7.30 9.95 -2.55 1.75 -2.80 2.10 -3.80 5.40 -0.60 1.90 -1.55 4.35 -2.20 5.35 -0.70 1.20 -1 2.35 -0.85 3.20 0.55 2.45 2.85 7 4.60 8.90 1.10 1.25 1.75 2.50 1.75 3.30 0 1.60 0.80 3.30 1.55 3.30 0.30 0 1.25 -0.75 2.15 -1.65z m-29.20 -53.35 c1.10 -0.55 2.40 -1 2.95 -1 1.30 0 4.90 -4.60 5.60 -7.10 0.95 -3.55 0.70 -4.65 -1.75 -8.60 -2.10 -3.35 -2.50 -3.75 -3.30 -3.30 -0.80 0.45 -1.60 0.10 -4.35 -1.70 -2.65 -1.75 -4.15 -2.40 -6.90 -2.85 -1.90 -0.30 -4.90 -1.10 -6.65 -1.75 -4 -1.50 -5.65 -1.20 -7.75 1.40 -0.85 1.05 -2.30 2.40 -3.20 2.95 -1.45 0.90 -1.95 0.95 -4 0.55 -2.55 -0.55 -3.25 -0.30 -4.20 1.50 -0.40 0.70 -0.30 1.30 0.35 2.30 1.80 2.90 4.95 4.85 10.50 6.65 3.90 1.25 8.05 4 13.05 8.70 3.05 2.90 3.60 3.20 5.55 3.25 1.20 0 3 -0.45 4.10 -1z m-59.95 -63.80 c3.90 -3.70 5.25 -4.35 8.95 -4.10 2.75 0.15 2.75 0.15 2.90 -2.75 0.15 -2.50 -0.05 -3.30 -1.45 -5.75 -0.90 -1.55 -2.40 -3.75 -3.30 -4.80 -2.05 -2.45 -2.20 -4.30 -0.40 -4.30 0.65 0 1.75 0.25 2.45 0.55 1.25 0.60 1.25 0.60 0.25 2.05 -1.55 2.15 -0.15 4.15 1.55 2.15 0.90 -1.10 3.70 -1.45 5.85 -0.70 1.05 0.30 3.25 1.45 4.95 2.50 4.90 2.95 10.55 4.60 16.25 4.60 4.20 0.05 4.95 -0.10 6.35 -1.10 2.75 -1.90 4.35 -4.90 5 -9.05 0.50 -3.60 0.50 -3.85 -0.65 -5.85 -1.60 -2.70 -5.90 -6.55 -11.50 -10.25 -5.90 -3.90 -6.10 -4.15 -6.50 -6.55 -0.15 -1.15 -0.55 -2.70 -0.85 -3.45 -1.10 -2.90 -6.95 -5.35 -12.80 -5.40 -1.85 0 -3.60 -0.45 -6 -1.55 -2.20 -1.05 -4.20 -1.60 -5.85 -1.65 -3 -0.05 -10 0.95 -13.60 2 -2.65 0.75 -2.65 0.75 -2.65 3.90 0 3.15 0 3.15 -3.45 6.45 -3.65 3.55 -5.10 4.35 -7.85 4.35 -2.40 0 -3.90 1.55 -3.40 3.65 0.45 2.20 2.10 5.20 4.35 7.95 1.85 2.30 1.85 2.30 0.85 4.70 -0.75 1.65 -1 3.20 -0.90 5.15 0.15 2.65 0.25 2.80 2.15 3.75 1.05 0.60 2.65 2 3.50 3.15 0.80 1.15 2.30 3.15 3.25 4.40 3.55 4.70 4 5.45 4.55 7.45 0.30 1.15 0.75 2.35 1.05 2.65 0.75 0.95 3.10 -0.45 6.95 -4.15z"/>
 </g>
 <g fill="#305100">
  <path d="M218.85 255.40 c-4.65 -0.95 -9.25 -5 -13.15 -11.65 -1.25 -2.20 -3.20 -5.20 -4.25 -6.70 -1.10 -1.50 -2.30 -3.85 -2.70 -5.20 -0.90 -3 -0.35 -4.55 2.55 -7.70 1.70 -1.85 2.35 -2.20 5.55 -2.85 3.65 -0.70 6.85 -2.05 11.55 -4.85 2.65 -1.55 2.65 -1.55 5 0.90 5.20 5.45 8.80 10 10 12.60 1.25 2.70 1.25 2.80 0.80 10.60 -0.45 7.75 -0.50 7.90 -2 9.80 -3.15 3.90 -8.70 6 -13.35 5.05z"/>
  <path d="M297.80 232.90 c-0.45 -0.60 -0.80 -1.75 -0.80 -2.55 0 -0.95 -0.65 -2.20 -1.90 -3.65 -1.85 -2.10 -5.10 -9.10 -5.10 -11.05 0 -0.50 0.60 -2.05 1.35 -3.40 0.70 -1.40 1.80 -4.05 2.40 -5.90 0.95 -3.15 1.25 -3.60 3.75 -5.30 3.30 -2.25 6.25 -6.30 7.30 -9.90 0.75 -2.65 0.75 -2.65 3.40 -2.65 3.15 0 7.40 1.20 8.35 2.30 1.30 1.55 0.75 6.15 -1.20 10 -2.90 5.85 -3 6.35 -2.70 11.30 0.30 4.85 -0.10 6.35 -2.85 10.10 -0.55 0.80 -2.05 3.25 -3.30 5.50 -3.20 5.70 -6.85 7.85 -8.70 5.20z"/>
 </g>
</svg>