<?xml version="1.0" encoding="utf-8"?>
<!DOCTYPE svg PUBLIC "-//W3C//DTD SVG 1.1//EN" "http://www.w3.org/Graphics/SVG/1.1/DTD/svg11.dtd">
<svg version="1.1" xmlns="http://www.w3.org/2000/svg" width="200px" height="200px" viewBox="0 0 200 200" preserveAspectRatio="xMidYMid meet">
 <g fill="#ffffff">
  <path d="M94.50 195 c-1.25 -0.20 -3.50 -0.65 -5 -0.95 -1.50 -0.30 -4 -0.75 -5.50 -1 -1.50 -0.30 -4.95 -1.05 -7.70 -1.75 -2.70 -0.70 -5.45 -1.30 -6.10 -1.30 -0.65 0 -2.65 -0.65 -4.45 -1.50 -1.80 -0.80 -3.45 -1.50 -3.65 -1.50 -0.25 0 -0.85 -0.40 -1.40 -0.90 -0.50 -0.50 -1.80 -1.25 -2.80 -1.75 -1 -0.50 -2.15 -1.15 -2.50 -1.50 -0.35 -0.35 -1.90 -1.60 -3.40 -2.85 -3.15 -2.55 -21.05 -20.50 -27.20 -27.25 -5.05 -5.55 -6.30 -7.20 -8.35 -11 -0.85 -1.65 -2.25 -3.90 -3 -4.95 -0.80 -1.10 -1.45 -2.20 -1.45 -2.45 0 -0.25 -0.40 -1.05 -0.90 -1.75 -0.50 -0.75 -1.20 -2.35 -1.50 -3.60 -1 -4.15 -1.75 -16 -1.35 -22.25 0.20 -3.30 0.45 -11.75 0.50 -18.75 0.20 -12.70 0.55 -16.35 2.45 -23.15 0.45 -1.60 0.80 -3.50 0.80 -4.30 0 -0.75 0.60 -2.35 1.40 -3.60 0.75 -1.20 1.65 -2.85 2 -3.60 0.35 -0.80 1.25 -2.25 2 -3.25 0.80 -1 2.35 -3.10 3.50 -4.60 3.10 -4.15 8.95 -9.90 11.30 -11.10 1.95 -0.95 3.90 -2.45 7.80 -5.90 3.35 -2.95 7.95 -3.10 9.45 -0.30 1.05 1.90 0.50 2.85 -2.60 4.50 -1.55 0.85 -4.35 2.80 -6.15 4.30 -1.80 1.50 -4.05 3.40 -4.95 4.15 -1.75 1.45 -6.05 8.20 -6.60 10.30 -0.15 0.65 -1.90 2.80 -3.85 4.80 -4.35 4.45 -6.60 8.55 -7.35 13.50 -0.20 1.40 -0.70 4.65 -1.15 7.25 -1.15 7 -0.80 34.85 0.45 34.65 1.30 -0.20 1.65 -5.65 1 -16 -0.30 -4.40 -0.20 -5.45 0.70 -8 0.60 -1.65 1.05 -3.40 1.05 -3.95 0 -1.70 2.30 -7.25 6.25 -15.20 4.30 -8.55 4.45 -8.90 5.25 -11.75 1.45 -5.05 4.25 -10.35 6.65 -12.55 2.95 -2.75 8.10 -6.95 12.35 -10.20 2 -1.50 3.90 -3 4.20 -3.30 0.35 -0.30 1.30 -0.95 2.20 -1.40 0.90 -0.45 1.60 -1 1.60 -1.25 0 -0.55 -1.25 -1.05 -2.65 -1.05 -1.45 -0.05 -2.70 -1.05 -3.30 -2.65 -0.45 -1.10 -0.85 -1.35 -2.20 -1.35 -3.40 0 -6.95 -3 -7.65 -6.40 -0.40 -1.95 1.50 -5.10 3.95 -6.60 1.90 -1.20 2.95 -1.25 4.80 -0.30 1.70 0.90 2.55 3.50 2.55 8 0 2.30 0.20 3.30 0.65 3.30 0.30 0 1.95 -0.70 3.60 -1.50 1.65 -0.85 3.20 -1.50 3.50 -1.50 0.30 0 1.60 -0.70 2.90 -1.50 1.30 -0.85 2.65 -1.50 3 -1.50 0.50 0 4.20 -1.80 9.80 -4.75 3.05 -1.60 9.50 -2.20 23.50 -2.25 7.30 0 13.90 0.20 14.75 0.45 0.85 0.25 2.55 0.75 3.80 1.05 1.25 0.35 2.70 0.80 3.25 1 1.15 0.45 4.35 1.30 6.50 1.75 0.85 0.20 2.20 0.65 3 1 0.85 0.40 2.60 1.05 3.95 1.50 1.35 0.45 3.65 1.35 5.15 2 1.45 0.70 2.90 1.25 3.20 1.25 0.95 0 8.20 5.20 13.95 10 3.15 2.65 6.55 5.35 7.50 6 2.60 1.75 3.95 3.50 4.55 5.75 0.90 3.40 2.35 5.85 5.60 9.50 1.70 1.95 3.80 4.65 4.65 6 2.65 4.35 6 10.35 7.70 14 0.90 1.95 2 4.05 2.45 4.75 0.45 0.70 1.10 2.15 1.50 3.25 0.35 1.10 0.80 2.45 1 3 0.90 2.30 1.55 4.65 1.55 5.80 0 0.65 0.70 2.95 1.50 5.10 1.55 3.90 1.55 3.90 0.95 9.25 -0.30 2.95 -0.95 6.90 -1.50 8.85 -0.50 1.90 -0.95 4.90 -0.95 6.65 0 3.05 -0.65 6.80 -1.50 8.85 -0.25 0.55 -0.70 1.90 -1.05 3 -1.25 4.15 -4.10 10.15 -5.45 11.60 -1.10 1.20 -8 11.45 -8 11.90 0 0.15 -0.90 1.65 -2 3.25 -2.20 3.25 -4 7.05 -4 8.45 0 0.55 -0.90 1.35 -2.30 2.10 -1.30 0.65 -2.95 1.95 -3.75 2.95 -5.30 6.60 -6.85 8.25 -11.05 12.10 -4.95 4.45 -8.90 6.70 -14.65 8.45 -1.10 0.30 -2.50 0.75 -3.15 1 -0.65 0.25 -1.50 0.45 -1.90 0.45 -0.40 0 -1.65 0.45 -2.85 0.95 -1.15 0.55 -3 1.25 -4.10 1.55 -1.10 0.35 -3.10 1.10 -4.50 1.65 -2.25 0.85 -3.90 1 -15.25 1.15 -7 0.05 -13.75 -0.05 -15 -0.30z m-6 -18.25 c0.85 -1.20 2.20 -2.60 3 -3.10 0.85 -0.45 1.50 -1 1.50 -1.20 0 -0.20 1.80 -1.85 3.95 -3.65 2.20 -1.80 4.55 -3.80 5.25 -4.50 0.70 -0.75 1.45 -1.30 1.70 -1.30 0.20 0 1.15 -0.80 2.10 -1.75 0.95 -0.95 1.95 -1.75 2.30 -1.75 0.30 0 1.65 -0.50 2.95 -1.05 3.70 -1.65 14.85 -5.45 15.95 -5.45 0.55 0 2.25 -0.45 3.75 -0.95 1.55 -0.50 4.15 -1.20 5.80 -1.50 3.85 -0.65 11.25 -1 11.25 -0.50 0 0.25 0.90 0.65 2 0.95 1.05 0.30 2.10 0.75 2.25 1 0.20 0.30 0.55 0.40 0.80 0.20 0.90 -0.55 -1.05 -2.10 -3.10 -2.45 -1.10 -0.20 -1.95 -0.60 -1.95 -1 0 -0.70 2.75 -3.25 3.55 -3.25 0.25 0 1.20 -0.75 2.10 -1.70 2.10 -2.25 3.80 -2.65 6.65 -1.55 1.20 0.45 2.50 0.75 2.85 0.60 0.35 -0.15 0.95 -1.45 1.30 -2.90 0.35 -1.50 0.85 -3.35 1.05 -4.20 0.25 -0.80 0.70 -2.85 1 -4.50 1.45 -7.85 1.35 -7.65 5.30 -14.25 2.25 -3.80 3.20 -6.45 3.20 -9.25 0 -1.10 0.35 -3.60 0.80 -5.50 1 -4.40 2.15 -12.75 2.20 -15.80 0 -2.30 -3.55 -14.15 -4.55 -15.15 -0.25 -0.30 -0.45 -0.80 -0.45 -1.20 0 -0.40 -1.05 -2.90 -2.35 -5.55 -2.30 -4.70 -2.65 -5.10 -14.15 -16.60 -7.80 -7.85 -12.35 -12 -13.50 -12.40 -0.95 -0.35 -3.75 -1.65 -6.25 -2.80 -9.85 -4.70 -10.70 -5 -16.50 -5.75 -1.90 -0.25 -4.95 -0.70 -6.75 -0.95 -5.45 -0.90 -19.85 0.15 -28 2 -8.70 2.05 -8.50 1.95 -12.20 5.45 -3.65 3.45 -5.15 4.50 -6.50 4.50 -0.45 0 -2.25 0.70 -4.05 1.50 -1.80 0.85 -3.55 1.50 -3.90 1.50 -0.30 0 -1.15 0.45 -1.85 1 -0.70 0.55 -1.50 1 -1.75 1 -0.75 0 -5.15 4.65 -7.85 8.25 -7.05 9.45 -12.30 18.40 -21.40 36.75 -1.40 2.75 -2.35 12.45 -1.55 15.55 0.40 1.60 0.55 3.65 0.30 5.85 -0.20 2.20 -0.10 3.85 0.25 4.85 0.95 2.35 2 8.25 2 11.25 0 2.55 0.85 6 1.65 6.80 0.20 0.20 0.35 0.65 0.35 1.05 0 1 2 5.15 3.35 7.05 1.05 1.40 1.45 1.60 3.60 1.60 1.85 0 2.80 0.30 4.35 1.50 1.05 0.80 2.20 1.50 2.55 1.50 0.30 0 1.80 1.15 3.35 2.50 2.75 2.55 2.75 2.55 5.90 2.40 3.15 -0.15 3.15 -0.15 3.40 -3.65 0.35 -3.95 1.75 -6.55 5.45 -9.90 2.20 -1.95 4.05 -2.35 5.80 -1.20 0.55 0.35 2 0.95 3.25 1.35 1.25 0.40 3 1.10 3.90 1.60 0.90 0.50 1.90 0.90 2.20 0.90 2.25 0 7.50 6.90 8.10 10.55 0.55 3.35 1.10 3.70 3.20 1.95 2.70 -2.20 5.05 -2.10 7.05 0.35 0.85 1.05 1.55 2.15 1.55 2.45 0 0.30 0.50 0.75 1.15 1.05 4.90 2.25 7.85 3.80 7.85 4.05 -0.05 0.20 -1.20 1.20 -2.65 2.25 -1.45 1 -3.70 2.95 -5.10 4.25 -2.50 2.35 -2.50 2.35 -14.10 2.25 -11.60 -0.10 -11.60 -0.10 -15.35 -2.65 -2.10 -1.40 -4.15 -2.65 -4.55 -2.80 -1.30 -0.55 -0.30 1.10 1.15 1.85 0.75 0.40 2.65 1.70 4.25 2.90 2.95 2.20 2.95 2.20 8.40 2.25 3.35 0.05 5.65 0.25 5.85 0.60 0.20 0.30 1.40 1.15 2.75 1.90 1.30 0.75 2.35 1.50 2.35 1.70 0 0.15 -0.55 1 -1.25 1.90 -1.15 1.50 -1.25 3.20 -0.20 3.20 0.20 0 1.10 -1 1.95 -2.25z m83.50 -25.30 c0 -0.55 -0.20 -0.85 -0.50 -0.70 -0.25 0.15 -0.50 0.65 -0.50 1.05 0 0.40 0.25 0.70 0.50 0.70 0.30 0 0.50 -0.45 0.50 -1.05z m3.15 -5.50 c0.25 -0.95 0.90 -2.20 1.45 -2.80 1 -1.05 1.55 -2.35 3.65 -8.40 0.50 -1.35 1.30 -3.30 1.75 -4.25 0.45 -0.95 1.15 -3.10 1.50 -4.75 0.35 -1.65 1.05 -3.85 1.55 -4.85 0.55 -1.05 0.95 -2.90 0.95 -4.25 0 -1.30 0.25 -4.90 0.55 -8.05 0.30 -3.10 0.40 -5.80 0.20 -6 -0.75 -0.75 -1.55 1.55 -2.15 6 -1.35 10.20 -1.80 12.65 -2.65 15.10 -0.55 1.40 -0.95 2.95 -0.95 3.40 0 0.50 -0.40 1.60 -0.90 2.50 -0.50 0.90 -1.45 3 -2.10 4.65 -0.65 1.65 -1.35 3.20 -1.60 3.50 -0.20 0.25 -0.40 0.90 -0.40 1.50 0 0.55 -0.55 2.15 -1.25 3.50 -1.30 2.70 -1.65 5.45 -0.65 5.15 0.35 -0.15 0.80 -1 1.05 -1.95z m-155.25 -20.40 c-0.25 -5.65 -0.55 -6.85 -1.45 -5.55 -0.50 0.75 -0.20 10.70 0.40 11.65 0.15 0.25 0.45 0.25 0.75 -0.05 0.35 -0.35 0.45 -2.65 0.30 -6.05z m166.10 -43.75 c0 -2.45 -0.70 -3.35 -1.40 -1.95 -0.50 1.05 0.15 4.15 0.90 4.15 0.30 0 0.50 -1 0.50 -2.20z m-34.75 -51.30 c-0.15 -0.25 -0.75 -0.50 -1.30 -0.50 -0.50 0 -0.95 0.25 -0.95 0.50 0 0.30 0.60 0.50 1.30 0.50 0.70 0 1.15 -0.20 0.95 -0.50z m-4.75 -2.20 c0 -0.80 -1.35 -1.45 -2.05 -1 -0.65 0.40 0.45 1.70 1.35 1.70 0.40 0 0.70 -0.30 0.70 -0.70z m-4.60 -2.90 c-0.10 -0.30 -0.65 -0.80 -1.20 -1.10 -0.50 -0.30 -1.60 -1 -2.45 -1.60 -2.45 -1.65 -6.80 -3.60 -9.50 -4.20 -1.35 -0.35 -4 -1.05 -5.85 -1.60 -3.15 -1 -5.30 -0.95 -4.65 0.10 0.15 0.25 1.10 0.60 2.15 0.75 1 0.15 3 0.85 4.45 1.55 1.45 0.70 3.45 1.40 4.50 1.55 1.75 0.25 8.75 3.60 9.90 4.70 0.65 0.65 2.85 0.55 2.65 -0.15z"/>
  <path d="M127.05 131.30 c-0.80 -0.95 -0.30 -1.95 1.50 -3 1.55 -0.90 1.55 -0.90 0.55 -2 -0.55 -0.55 -1.20 -1.70 -1.45 -2.55 -0.35 -1.05 -1.20 -1.90 -2.95 -2.80 -6 -3.20 -8.70 -7.10 -8.70 -12.70 0 -7.75 2.95 -11.85 10.50 -14.60 2.70 -1 6.40 -0.80 10.15 0.60 4.15 1.50 4.35 1.60 4.35 2.60 0 1.60 -1.60 2.10 -6.90 2.15 -5.55 0 -8.30 0.85 -10.70 3.25 -1.60 1.60 -2.60 5.60 -1.90 7.45 1.75 4.70 5 5.90 12.05 4.55 2.30 -0.50 5.10 -0.90 6.20 -0.90 1.80 -0.10 2 0.05 2.15 1.20 0.25 2.30 -5.25 6.45 -8.55 6.45 -2.45 0 -2.45 1.05 -0.05 3.60 2.75 2.95 2.85 4.55 0.25 6.25 -1.95 1.30 -5.60 1.55 -6.50 0.45z"/>
  <path d="M85 129.20 c-0.40 -0.20 -3.55 -3.05 -7 -6.45 -3.45 -3.35 -7.10 -6.70 -8.10 -7.45 -1.05 -0.80 -1.90 -1.80 -1.90 -2.25 0 -1.35 2 -2.90 4.95 -3.85 2 -0.65 3 -1.30 4.10 -2.80 0.75 -1.10 1.55 -2.45 1.75 -3 1.15 -3.75 -3.55 -9.40 -7.80 -9.40 -2.75 0 -3.75 3.40 -4.50 15.25 -0.30 4.40 -0.50 10.15 -0.50 12.75 0 5.65 -0.60 7 -3.20 7 -1.95 0 -2.15 -0.40 -2.60 -6 -0.35 -4.35 0.50 -17.55 1.30 -19.75 0.25 -0.80 0.55 -2.75 0.65 -4.25 0.10 -2.75 0.10 -2.75 -4.15 -2.90 -2.30 -0.10 -4.50 -0.40 -4.85 -0.70 -1 -0.80 -0.80 -3.30 0.35 -4.25 0.95 -0.80 4.75 -1.80 12.65 -3.25 4.70 -0.90 11.55 0.70 14.65 3.45 2.40 2.10 3.30 4.55 3.35 9.40 0 5.10 -0.70 6.90 -4.20 10.50 -1.05 1.15 -1.95 2.40 -1.95 2.85 0 0.45 1.75 2.65 3.90 4.85 4.15 4.40 5.20 4.80 8.85 3.50 1.30 -0.50 1.80 -0.45 2.90 0.30 1.75 1.10 1.70 2.60 -0.05 4.70 -1.25 1.50 -1.65 1.65 -4.60 1.85 -1.80 0.10 -3.60 0.05 -4 -0.10z"/>
  <path d="M159.20 125.05 c-1.50 -1.35 -1.75 -1.40 -5.25 -1.15 -5.45 0.35 -7.20 -0.60 -9.40 -5.10 -1.70 -3.45 -1.70 -3.45 -0.60 -5.60 1.35 -2.45 2.55 -3.70 5.20 -5.15 2 -1.10 6.55 -1.45 7.10 -0.55 0.35 0.55 2.75 0.70 2.75 0.20 0 -0.35 -1.95 -3.15 -2.75 -4 -1.05 -1.10 -2.75 -1.70 -4.75 -1.70 -2.35 0 -5 -1.20 -5 -2.25 0 -0.35 0.85 -1.35 1.85 -2.20 1.60 -1.30 2.30 -1.55 4.65 -1.55 2.85 0 4.95 0.90 7.40 3.20 2.50 2.25 2.80 3.85 2.75 13.75 -0.05 9.10 -0.65 13.55 -1.85 13.55 -0.30 0 -1.25 -0.65 -2.10 -1.45z m-2.55 -8 c1.75 -0.65 1.70 -1.15 -0.20 -2.75 -1.90 -1.60 -4.50 -1.75 -5.95 -0.30 -2.85 2.85 1.30 4.90 6.15 3.05z"/>
  <path d="M92.50 118.60 c-7.95 -8.25 -3.05 -21.35 8.60 -22.90 2.15 -0.30 2.85 -0.10 6.05 1.45 3.95 2 5.20 3.50 6.65 7.85 1.55 4.70 0.55 8.10 -3.75 12.65 -2.80 3 -3.85 3.35 -9.85 3.35 -5.40 0 -5.40 0 -7.70 -2.40z m10.85 -4.35 c2.85 -0.35 4.15 -1.45 5.15 -4.30 0.60 -1.60 0.55 -2 -0.50 -3.80 -1.25 -2.30 -4.15 -4.15 -6.40 -4.15 -3.95 0 -7.65 3.30 -7.55 6.80 0.05 3.60 2.70 6.45 5.45 6 0.70 -0.15 2.40 -0.40 3.85 -0.55z"/>
  <path d="M55.45 78.90 c-0.40 -0.80 -0.45 -2.95 -0.15 -8.10 0.50 -8.35 0.50 -10.85 -0.20 -17.80 -0.75 -7.10 -0.50 -7.60 4.15 -8.20 10.45 -1.30 16.50 -0.10 21.45 4.25 3.40 3 4.45 5.70 4.40 11.45 0 3.10 -0.25 5.35 -0.75 6.50 -2.05 4.65 -6.10 8.35 -10.35 9.40 -1.25 0.30 -2.80 0.70 -3.50 0.85 -0.70 0.15 -3.20 0.50 -5.55 0.70 -2.35 0.20 -5 0.75 -5.95 1.20 -2.20 1.10 -2.85 1.05 -3.55 -0.25z m15.80 -5.70 c5.40 -0.90 9.35 -7 8.55 -13.05 -0.75 -5.80 -0.90 -6.25 -3 -8.40 -2.50 -2.60 -6 -3.75 -11.40 -3.75 -5.60 0 -5.40 -0.55 -4.90 13.10 0.25 8.30 0.55 11.60 1.05 12.20 0.55 0.65 1.30 0.75 4.20 0.50 1.90 -0.15 4.40 -0.40 5.50 -0.60z"/>
  <path d="M90.90 73.75 c-2.35 -1.15 -3.85 -3.50 -3.90 -6.05 -0.05 -4.05 5.65 -8 9.05 -6.20 0.65 0.40 1.25 0.35 1.95 0 1.20 -0.65 1.25 -1.65 0.15 -3.30 -0.75 -1.15 -1.10 -1.30 -3.60 -1.15 -4.45 0.20 -4.65 0.10 -4.45 -1.40 0.20 -1.75 2.05 -2.30 6.30 -1.90 4.10 0.35 5.25 0.95 6.65 3.45 1.10 1.85 1.20 2.65 1.20 8.05 0 5.55 -0.65 9.15 -1.70 9.30 -0.15 0 -2.40 0.10 -4.90 0.15 -3.90 0.10 -5 -0.05 -6.75 -0.95z m7.20 -3.60 c1.10 -0.95 1.20 -3.45 0.20 -4.45 -1.60 -1.60 -6.30 -0.30 -6.30 1.75 0 0.50 0.45 1.50 1.05 2.25 1.20 1.55 3.60 1.75 5.05 0.45z"/>
  <path d="M172.75 173 c-0.60 -1.85 0.15 -3 1.95 -3 1.50 0 2.80 0.75 2.80 1.60 0 0.20 -0.50 0.80 -1.10 1.40 -1.40 1.30 -3.25 1.30 -3.65 0z"/>
  <path d="M170.60 34.40 c-1.25 -1.25 -0.15 -4.40 1.55 -4.40 1 0 1.60 2 1.15 3.75 -0.35 1.35 -1.70 1.65 -2.70 0.65z"/>
  <path d="M15.60 29.25 c-0.35 -0.40 -0.75 -1.70 -0.90 -2.95 -0.30 -1.95 -0.15 -2.40 0.95 -3.50 1.85 -1.85 3.55 -1.60 6.25 0.85 1.50 1.40 1.40 2.45 -0.60 4.55 -1.30 1.40 -2.05 1.80 -3.35 1.80 -0.95 -0.05 -2 -0.35 -2.35 -0.75z"/>
  <path d="M59.65 15.45 c-2.15 -0.60 -2.20 -2.25 -0.20 -4.40 1.70 -1.80 2.45 -1.90 4.25 -0.50 1.80 1.40 1.85 4.20 0.10 4.65 -0.65 0.15 -1.50 0.40 -1.90 0.50 -0.35 0.10 -1.40 0 -2.25 -0.25z"/>
 </g>
</svg>